# xmcd CD database file
#
# Track frame offsets:
#	150
#	15548
#	34123
#	46608
#	60925
#	71634
#	84077
#	95751
#	112203
#	129878
#
# Disc length: 1864 seconds
#
# Revision: 0
# Processed by: cddbd v1.5.2PL0 Copyright (c) Steve Scherf et al.
# Submitted via: CDex 1.51
#
DISCID=7407460a
DTITLE=Lifestyles - Country Barbeque
DYEAR=2004
DGENRE=Country
TTITLE0=1. Jeanie C. Riley - Harper Valley P.T.A.
TTITLE1=2. Tom T. Hall - I Like Beer
TTITLE2=3. Loretta Lynn - Me And Bobby McGee
TTITLE3=4. Jerry lee Lewis - Bottles and Barstools
TTITLE4=5. Roger Miller - King Of The Road
TTITLE5=6. Patsy Cline - Today, Tomorrow And Forever
TTITLE6=7. George Jones - Swinging Doors
TTITLE7=8. Brenda Lee - Coming On Strong
TTITLE8=9. Tom T. Hall - Old Dogs, Children And The Watermelon wine
TTITLE9=10. Willie Nelson - On The Road Again
EXTD=YEAR: 2004
EXTT0=
EXTT1=
EXTT2=
EXTT3=
EXTT4=
EXTT5=
EXTT6=
EXTT7=
EXTT8=
EXTT9=
PLAYORDER=
